<svg xmlns="http://www.w3.org/2000/svg" viewBox="0 0 720 1280" width="720" height="1280" role="img" aria-label="Beach at sunset with waves running up the sand">
  <defs>
    <linearGradient id="sb-sky" x1="0" y1="0" x2="0" y2="1">
      <stop offset="0" stop-color="#4b3b7d"/>
      <stop offset="0.5" stop-color="#e2717b"/>
      <stop offset="1" stop-color="#fbc37a"/>
    </linearGradient>
    <linearGradient id="sb-sea" x1="0" y1="0" x2="0" y2="1">
      <stop offset="0" stop-color="#6d6fa8"/>
      <stop offset="1" stop-color="#2f4f7a"/>
    </linearGradient>
  </defs>
  <rect width="720" height="640" fill="url(#sb-sky)"/>
  <circle cx="360" cy="620" r="110" fill="#ffe0a3"/>
  <g fill="#fff" opacity="0.45">
    <ellipse cx="160" cy="300" rx="110" ry="18"/>
    <ellipse cx="560" cy="210" rx="90" ry="14"/>
  </g>
  <rect y="620" width="720" height="360" fill="url(#sb-sea)"/>
  <g fill="#ffe0a3" opacity="0.55">
    <rect x="270" y="650" width="180" height="6" rx="3"/>
    <rect x="290" y="690" width="140" height="6" rx="3"/>
    <rect x="310" y="734" width="100" height="6" rx="3"/>
  </g>
  <path d="M0,900 C160,860 320,930 480,890 C600,860 660,880 720,870 L720,1280 L0,1280 Z" fill="#f1d3a8"/>
  <path d="M0,900 C160,860 320,930 480,890 C600,860 660,880 720,870 L720,900 C640,915 560,900 480,925 C320,965 160,900 0,940 Z" fill="#ffffff" opacity="0.7"/>
  <path d="M0,1100 C200,1060 420,1140 720,1080 L720,1280 L0,1280 Z" fill="#e3bd8b"/>
  <g fill="#c99d6c">
    <ellipse cx="300" cy="1010" rx="10" ry="16"/>
    <ellipse cx="336" cy="1060" rx="10" ry="16"/>
    <ellipse cx="310" cy="1120" rx="11" ry="17"/>
    <ellipse cx="350" cy="1180" rx="11" ry="18"/>
  </g>
</svg>
